<svg version="1.1" xmlns="http://www.w3.org/2000/svg" style="display: block;" viewBox="0 0 2048 2048" width="512" height="512" preserveAspectRatio="none">
<defs>
	<linearGradient id="Gradient1" gradientUnits="userSpaceOnUse" x1="1432.02" y1="1253.68" x2="129.322" y2="939.875">
		<stop class="stop0" offset="0" stop-opacity="1" stop-color="rgb(253,149,49)"/>
		<stop class="stop1" offset="1" stop-opacity="1" stop-color="rgb(254,184,61)"/>
	</linearGradient>
</defs>
<path transform="translate(0,0)" fill="rgb(10,28,51)" d="M 649.129 276.455 C 667.914 269.478 685.951 259.867 704.679 252.478 C 715.149 248.346 757.26 235.93 763.039 230.088 C 772.083 220.948 792.11 92.6544 806.632 63.6723 C 817.682 41.6207 840.896 21.9992 864.358 14.356 C 873.568 11.3558 884.166 10.2091 893.801 9.66914 C 910.942 8.70852 928.379 9.28171 945.555 9.26939 L 1036.93 9.21511 L 1106.2 9.19784 C 1135.87 9.19325 1160.34 6.33272 1187.52 20.2704 C 1237.51 45.9013 1241.56 88.3699 1252.23 137.882 C 1258.49 166.945 1265.49 202.298 1274.59 230.981 C 1291.01 238.203 1309.75 243.017 1326.65 249.914 C 1344.68 256.509 1361.9 265.202 1379.67 272.377 C 1385.42 274.697 1389.57 276.211 1395.31 273.433 C 1405.37 268.562 1415.02 260.637 1424.07 254.275 C 1442.63 241.372 1461.1 228.329 1479.46 215.148 C 1518.72 187.202 1553.53 161.134 1604.13 181.426 C 1632.6 192.845 1651.61 215.952 1672.66 237.341 L 1726.95 292.315 L 1787.35 353.324 C 1806.93 373.22 1828.7 391.796 1839.81 417.828 C 1864.88 476.663 1824 519.575 1795.39 566.435 C 1781.86 588.609 1760.47 615.281 1751.13 638.568 C 1754.56 647.757 1760.01 658.381 1764.13 667.434 C 1775.76 692.934 1785.62 718.868 1795.55 745.041 C 1796.8 748.333 1799.73 755.215 1802.76 756.699 C 1813.53 761.974 1827.69 763.292 1839.43 765.702 C 1858.72 769.858 1878.04 773.9 1897.38 777.829 C 1945.45 787.785 1990.25 796.489 2010.61 847.867 C 2021.32 874.913 2018.75 906.613 2018.72 935.346 L 2018.73 1019.72 L 2018.76 1098.35 C 2018.76 1124.82 2021.04 1154.57 2009.91 1179.08 C 2001.25 1197.55 1981.55 1219.23 1962.84 1228.57 C 1927.84 1246.04 1880.17 1248.05 1842.05 1258.23 C 1828.79 1261.77 1814.43 1261.97 1802.14 1267.36 C 1795.61 1276.25 1780.32 1321.32 1774.16 1335.63 C 1766.85 1352.62 1756.93 1373.22 1749.87 1390.02 C 1756.86 1403.51 1768.16 1419.56 1776.53 1432.4 L 1814.12 1490.81 C 1841.73 1533.58 1862.54 1569.11 1834.87 1619.38 C 1876.92 1667.92 1925.98 1711.69 1968.71 1759.81 C 1987.37 1780.82 2007.38 1794.9 2021.2 1820.94 C 2054.19 1883.1 2038.94 1959.49 1985.55 2005.13 C 1946.1 2038.85 1909.55 2047.59 1858.89 2043.83 C 1834.05 2041.8 1810.11 2033.54 1789.3 2019.81 C 1768.35 2005.92 1747.25 1980.35 1729.18 1961.69 L 1646.46 1877 C 1634.49 1864.71 1622.34 1851.14 1610.22 1839.2 C 1592.02 1852.16 1558.7 1852.74 1538.31 1845.23 C 1518.18 1837.81 1499.42 1822.5 1481.62 1810.73 C 1475.43 1806.64 1469.34 1801.99 1463.15 1797.86 C 1439.62 1782.02 1416.84 1764.57 1391.95 1750.91 C 1373.89 1757.19 1350.96 1769.41 1332.48 1776.86 C 1313.24 1784.6 1294.61 1790.37 1275.6 1797.7 C 1268.94 1807.75 1264.07 1839 1261.21 1852.25 L 1248.21 1910.66 C 1244.92 1925.27 1241.87 1939.77 1237.14 1954.12 C 1225.62 1989.13 1189.41 2018.04 1152.72 2021.38 C 1138.1 2022.7 1121.77 2022.21 1106.95 2022.21 L 1034.6 2022.2 L 945.003 2022.29 C 922.308 2022.31 885.424 2024.24 864.869 2016.6 C 852.594 2011.96 841.248 2005.16 831.364 1996.53 C 801.415 1970.62 797.229 1942.71 789.192 1905.26 L 775.07 1838.98 C 773.526 1831.79 769.225 1809.66 765.922 1802.19 C 763.975 1797.03 754.981 1794.15 749.757 1792.6 C 715.594 1782.41 682.457 1763.62 649.472 1751.82 C 636.302 1754.82 625.928 1764.57 614.394 1771.8 C 579.082 1793.94 538.242 1829.88 500.398 1845.53 C 478.184 1853.36 445.757 1851.76 425.357 1840.17 C 399.873 1825.69 377.521 1800.22 356.985 1779.66 L 291.433 1714.2 C 265.374 1687.98 237.826 1662.67 213.739 1634.56 C 192.108 1609.32 185.929 1571.69 196.456 1540.39 C 200.855 1527.31 212.149 1511.34 219.774 1499.47 L 260.959 1434.09 C 264.07 1429.25 289.781 1391.52 288.201 1387.74 C 272.611 1350.37 255.114 1313.78 243.01 1274.97 C 238.789 1261.44 210.629 1259.77 197.784 1257.37 C 178.057 1253.59 158.357 1249.67 138.686 1245.61 C 121.996 1242.21 98.8837 1238.3 83.8522 1231.57 C 57.4936 1220.07 36.8749 1198.44 26.6471 1171.57 C 15.2087 1141 20.8656 1077.1 20.6751 1042.41 L 20.7996 940.341 C 20.7846 918.511 20.4465 896.681 21.493 874.898 C 23.2515 838.294 51.2015 804.374 84.9468 791.82 C 100.602 785.996 121.22 782.669 137.889 779.219 L 201.178 765.64 C 209.041 763.964 226.233 760.966 232.759 758.918 C 242.899 755.735 253.385 719.293 257.26 709.771 C 267.551 685.097 278.162 660.558 289.089 636.159 C 278.705 618.967 266.957 602.466 256.154 585.547 C 247.27 572.852 239.386 557.369 230.478 544.965 C 201.797 505.642 176.567 460.98 201.173 412.405 C 213.126 388.808 241.491 363.226 260.385 344.146 L 324.068 280.044 L 375.083 228.688 C 386.199 217.534 398.352 204.797 410.444 194.903 C 419.012 187.963 428.813 182.7 439.332 179.393 C 487.859 163.687 519.376 188.144 557.362 213.684 C 583.606 231.329 621.168 262.93 649.129 276.455 z"/>
<path transform="translate(0,0)" fill="rgb(254,254,254)" d="M 1015.28 510.077 C 1054.83 510.689 1084.81 511.991 1123.97 519.422 C 1213.94 536.495 1305.5 585.048 1373.5 645.848 C 1382.94 659.469 1397.96 673.422 1408.69 685.625 C 1424.33 703.406 1455.77 743.779 1460.58 765.636 C 1474.92 780.976 1482.86 799.334 1490.89 818.523 C 1518.57 884.634 1531.66 955.946 1529.23 1027.58 C 1528.58 1052.99 1525.77 1078.3 1520.85 1103.24 C 1507.62 1168.6 1491.07 1198.93 1517.24 1269.67 C 1534.56 1319.68 1565.7 1339.17 1599.71 1377.2 C 1602.83 1380.69 1623.94 1400.63 1626.56 1401.41 L 1627.25 1400.33 C 1632.45 1414.83 1678.67 1458.59 1691.93 1472.41 L 1834.87 1619.38 C 1876.92 1667.92 1925.98 1711.69 1968.71 1759.81 C 1987.37 1780.82 2007.38 1794.9 2021.2 1820.94 C 2054.19 1883.1 2038.94 1959.49 1985.55 2005.13 C 1946.1 2038.85 1909.55 2047.59 1858.89 2043.83 C 1834.05 2041.8 1810.11 2033.54 1789.3 2019.81 C 1768.35 2005.92 1747.25 1980.35 1729.18 1961.69 L 1646.46 1877 C 1634.49 1864.71 1622.34 1851.14 1610.22 1839.2 C 1608.59 1835.49 1598.99 1824.48 1595.95 1821.34 C 1560.68 1784.89 1524.99 1748.71 1489.79 1712.2 C 1472.5 1694.26 1455.71 1675.7 1438.07 1658.1 C 1428.65 1648.71 1418.11 1636.95 1407.26 1629.49 C 1407.71 1628.08 1407.6 1628.93 1407.16 1626.91 C 1385.74 1603.25 1365.05 1580.72 1342.1 1558.43 C 1329.89 1546.57 1317.03 1531.05 1303.12 1521.18 C 1276.79 1502.52 1234.72 1488.68 1202.29 1488.97 C 1186.23 1489.12 1165.29 1495.77 1149.48 1499.43 C 1104.07 1509.95 1064.5 1517.66 1017.7 1515.04 L 1015.03 1514.12 C 1011.4 1514.93 1007.7 1515.16 1003.99 1515.12 C 879.078 1513.79 749.56 1453.29 661.648 1368.14 C 567.934 1275.62 514.196 1150.08 511.955 1018.41 C 510.052 886.836 560.193 759.832 651.467 665.04 C 747.052 566.692 878.135 510.858 1015.28 510.077 z"/>
<path transform="translate(0,0)" fill="rgb(173,22,62)" d="M 1367.29 818.391 C 1371 812.64 1369.57 800.362 1372.66 792.942 C 1390.01 751.286 1425.3 753.444 1460.58 765.636 C 1474.92 780.976 1482.86 799.334 1490.89 818.523 C 1518.57 884.634 1531.66 955.946 1529.23 1027.58 C 1528.58 1052.99 1525.77 1078.3 1520.85 1103.24 C 1507.62 1168.6 1491.07 1198.93 1517.24 1269.67 C 1534.56 1319.68 1565.7 1339.17 1599.71 1377.2 C 1602.83 1380.69 1623.94 1400.63 1626.56 1401.41 L 1627.25 1400.33 C 1632.45 1414.83 1678.67 1458.59 1691.93 1472.41 L 1834.87 1619.38 C 1876.92 1667.92 1925.98 1711.69 1968.71 1759.81 C 1987.37 1780.82 2007.38 1794.9 2021.2 1820.94 C 2054.19 1883.1 2038.94 1959.49 1985.55 2005.13 C 1946.1 2038.85 1909.55 2047.59 1858.89 2043.83 C 1834.05 2041.8 1810.11 2033.54 1789.3 2019.81 C 1768.35 2005.92 1747.25 1980.35 1729.18 1961.69 L 1646.46 1877 C 1634.49 1864.71 1622.34 1851.14 1610.22 1839.2 C 1608.59 1835.49 1598.99 1824.48 1595.95 1821.34 C 1560.68 1784.89 1524.99 1748.71 1489.79 1712.2 C 1472.5 1694.26 1455.71 1675.7 1438.07 1658.1 C 1428.65 1648.71 1418.11 1636.95 1407.26 1629.49 C 1407.71 1628.08 1407.6 1628.93 1407.16 1626.91 C 1385.74 1603.25 1365.05 1580.72 1342.1 1558.43 C 1329.89 1546.57 1317.03 1531.05 1303.12 1521.18 C 1276.79 1502.52 1234.72 1488.68 1202.29 1488.97 C 1186.23 1489.12 1165.29 1495.77 1149.48 1499.43 C 1104.07 1509.95 1064.5 1517.66 1017.7 1515.04 L 1015.03 1514.12 C 985.9 1487.78 978.972 1454.63 1008.14 1423.12 C 1011.96 1418.99 1018.34 1414.77 1020.9 1409.95 C 1161.84 1409.74 1292.14 1334.92 1363.36 1213.29 C 1434.59 1091.66 1436.08 941.411 1367.29 818.391 z"/>
<path transform="translate(0,0)" fill="rgb(250,58,93)" d="M 1410.74 1335.7 C 1446.44 1375.61 1491.75 1418.17 1529.36 1457.29 L 1785.98 1725.6 C 1814.74 1754.98 1843.35 1784.51 1871.82 1814.18 C 1887.3 1830.1 1908.77 1849.11 1921.2 1867.27 C 1929.52 1879.41 1929.24 1904.34 1920.06 1916.52 C 1904.17 1937.62 1885.21 1942.78 1860.38 1935.24 C 1836.49 1924.68 1818.3 1899.25 1800.05 1880.74 C 1760.6 1840.92 1721.63 1800.63 1683.14 1759.89 L 1495.48 1565.76 C 1465.4 1534.01 1435.09 1502.49 1404.55 1471.19 C 1382.38 1448.22 1362.2 1426.55 1338.87 1404.6 C 1362.71 1381.34 1386.95 1359.12 1410.74 1335.7 z"/>
<path transform="translate(0,0)" fill="rgb(250,58,93)" d="M 1015.28 510.077 C 1054.83 510.689 1084.81 511.991 1123.97 519.422 C 1213.94 536.495 1305.5 585.048 1373.5 645.848 C 1382.94 659.469 1397.96 673.422 1408.69 685.625 C 1424.33 703.406 1455.77 743.779 1460.58 765.636 C 1425.3 753.444 1390.01 751.286 1372.66 792.942 C 1369.57 800.362 1371 812.64 1367.29 818.391 C 1272.76 649.342 1070.16 573.022 887.589 637.686 C 705.019 702.35 595.623 889.175 628.569 1080.04 C 661.515 1270.9 827.214 1410.23 1020.9 1409.95 C 1018.34 1414.77 1011.96 1418.99 1008.14 1423.12 C 978.972 1454.63 985.9 1487.78 1015.03 1514.12 C 1011.4 1514.93 1007.7 1515.16 1003.99 1515.12 C 879.078 1513.79 749.56 1453.29 661.648 1368.14 C 567.934 1275.62 514.196 1150.08 511.955 1018.41 C 510.052 886.836 560.193 759.832 651.467 665.04 C 747.052 566.692 878.135 510.858 1015.28 510.077 z"/>
<path transform="translate(0,0)" fill="rgb(10,28,51)" d="M 820.397 869.279 C 840.925 869.122 861.454 869.131 881.982 869.306 C 885.455 881.214 894.02 901.919 898.656 913.964 L 935.736 1008.29 C 946.995 1037.08 957.189 1066.26 969.084 1094.8 C 972.067 1101.95 974.823 1109.19 978.582 1115.98 L 915.468 1115.9 C 910.94 1100.88 903.75 1082.83 898.504 1067.4 C 894.144 1067.64 889.437 1067.68 885.041 1067.81 C 863.602 1067.92 824.346 1069.13 804.13 1067.09 C 800.445 1080.36 791.302 1102.86 786.122 1116.39 C 767.53 1115.28 743.997 1115.95 725.067 1116.08 C 736.742 1088.27 747.969 1056.42 758.989 1027.95 C 779.965 975.259 800.435 922.365 820.397 869.279 z"/>
<path transform="translate(0,0)" fill="rgb(254,254,254)" d="M 849.81 934.64 C 852.959 937.163 877.17 1011.56 880.082 1020.93 C 872.059 1020.18 863.358 1020.26 855.25 1020.16 L 820.386 1020.14 C 827.427 994.491 841.223 961.273 849.81 934.64 z"/>
<path transform="translate(0,0)" fill="rgb(10,28,51)" d="M 996.057 869.346 L 1062.85 869.147 C 1082.52 869.106 1113 868.339 1131.38 872.991 C 1142.89 875.854 1153.52 881.491 1162.35 889.41 C 1197.25 921.006 1191.31 992.332 1149.19 1015.23 C 1131.42 1024.9 1118.22 1028.4 1097.94 1029.14 C 1083.65 1029.58 1069.49 1029.36 1055.09 1029.93 L 1055.02 1116.2 C 1035.84 1115.68 1015.34 1116.05 996.059 1116.07 L 996.057 869.346 z"/>
<path transform="translate(0,0)" fill="rgb(254,254,254)" d="M 1055.63 916.043 C 1076.44 915.729 1110.2 910.833 1121.45 931.894 C 1129.75 947.442 1126.94 960.34 1116.29 973.389 C 1101.49 986.61 1074.66 983.266 1055.11 983.134 C 1055.14 960.769 1055.31 938.405 1055.63 916.043 z"/>
<path transform="translate(0,0)" fill="rgb(10,28,51)" d="M 1217.14 868.905 C 1235.49 869.611 1256.28 869.17 1274.81 869.19 C 1273.37 951.075 1275.37 1033.85 1274.08 1115.82 C 1256.96 1116.66 1235.02 1116.02 1217.39 1116.31 L 1217.14 868.905 z"/>
<path transform="translate(0,0)" fill="url(#Gradient1)" d="M 314.888 459.65 C 322.049 447.539 337.474 433.654 347.765 423.191 L 394.881 375.315 C 416.813 353.047 438.244 330.13 460.349 308.035 C 462.791 305.594 467.501 301.746 470.687 300.542 C 473.929 299.429 480.42 302.061 483.028 303.932 C 507.052 321.163 531.333 338.181 555.662 354.989 C 575.85 368.937 594.729 384.68 616.908 395.336 C 629.098 401.193 642.052 402.485 655.332 399.613 C 683.954 392.03 708.05 375.1 737.001 363.822 C 753.937 357.214 771.072 351.13 788.383 345.58 C 803.08 340.956 819.806 336.568 833.981 331.096 C 842.933 351.616 904.989 397.925 923.516 416.492 C 946.429 439.453 973.367 462.389 995.94 486.077 C 1001.39 491.797 1016.47 502.956 1015.28 510.077 C 878.135 510.858 747.052 566.692 651.467 665.04 C 560.193 759.832 510.052 886.836 511.955 1018.41 C 514.196 1150.08 567.934 1275.62 661.648 1368.14 C 749.56 1453.29 879.078 1513.79 1003.99 1515.12 C 1007.7 1515.16 1011.4 1514.93 1015.03 1514.12 L 1017.7 1515.04 C 1064.5 1517.66 1104.07 1509.95 1149.48 1499.43 C 1165.29 1495.77 1186.23 1489.12 1202.29 1488.97 C 1234.72 1488.68 1276.79 1502.52 1303.12 1521.18 C 1317.03 1531.05 1329.89 1546.57 1342.1 1558.43 C 1365.05 1580.72 1385.74 1603.25 1407.16 1626.91 C 1407.6 1628.93 1407.71 1628.08 1407.26 1629.49 C 1382.48 1623.17 1364.62 1633.32 1342.97 1644.8 C 1317.26 1658.06 1296.31 1667.89 1269.01 1677.98 C 1243.28 1688.11 1212.65 1691.34 1189.68 1707.29 C 1163.17 1725.71 1162.19 1763.71 1155.03 1792.36 C 1150.1 1812.69 1145.92 1833.36 1141.17 1853.71 C 1137.03 1871.47 1136.73 1893.35 1123.69 1906.77 C 1109.17 1908.44 919.965 1907.76 915.624 1906.24 C 911.098 1904.65 907.93 1897.52 906.38 1893.45 C 901.749 1881.3 899.859 1867.28 897.283 1854.57 C 892.31 1830.16 887.15 1805.79 881.804 1781.46 C 879.57 1771.19 877.311 1760.96 874.933 1750.7 C 871.076 1733.07 861.967 1712.6 844.796 1703.86 C 816.278 1689.34 782.767 1683.45 752.716 1671.09 C 724.257 1659.39 697.728 1644.96 669.537 1633.24 C 623.819 1614.23 587.614 1650.85 552.577 1674.25 C 537.662 1684.38 522.806 1694.57 508.002 1704.87 C 496.638 1712.77 484.508 1723.17 471.919 1728.79 C 453.432 1717.78 426.796 1687.45 410.959 1671.3 L 355.109 1614.88 C 350.84 1610.51 346.08 1605.84 341.702 1601.57 C 307.375 1568.1 310.023 1573.8 334.915 1535.94 C 346.063 1518.68 357.298 1501.47 368.619 1484.32 C 389.992 1451.83 422.436 1413.17 409.408 1372.18 C 399.767 1341.85 380.225 1315.51 368.637 1285.71 C 355.927 1253.01 346.86 1218.34 331.81 1186.74 C 320.631 1164 288.982 1155.27 266.109 1151.67 C 234.734 1146.17 203.542 1139.72 172.219 1133.93 C 152.519 1130.28 135.019 1129.67 134.917 1105.71 C 134.645 1042.32 134.966 979.037 134.709 915.663 C 134.611 891.663 165.034 891.1 183.152 887.761 L 246.85 875.682 C 262.195 872.83 288.93 868.785 302.397 862.974 C 314.357 857.922 324.486 849.333 331.424 838.359 C 338.482 827.176 343.682 810.224 348.011 797.54 C 360.538 760.841 372.759 723.552 392.374 689.852 C 410.883 658.053 421.477 630.024 401.347 595.851 C 381.345 561.897 358.704 529.59 337.722 496.219 C 330.548 484.815 319.96 472.104 314.888 459.65 z"/>
<path transform="translate(0,0)" fill="rgb(221,127,37)" d="M 1017.7 1515.04 C 1064.5 1517.66 1104.07 1509.95 1149.48 1499.43 C 1165.29 1495.77 1186.23 1489.12 1202.29 1488.97 C 1234.72 1488.68 1276.79 1502.52 1303.12 1521.18 C 1317.03 1531.05 1329.89 1546.57 1342.1 1558.43 C 1365.05 1580.72 1385.74 1603.25 1407.16 1626.91 C 1407.6 1628.93 1407.71 1628.08 1407.26 1629.49 C 1382.48 1623.17 1364.62 1633.32 1342.97 1644.8 C 1339.93 1639.68 1327.2 1629.57 1322.28 1625.17 C 1312.74 1616.56 1303.47 1607.66 1294.48 1598.49 C 1270.96 1574.69 1233.25 1525.48 1196.2 1535.65 C 1124.14 1555.41 1048.9 1568.46 973.973 1558.33 C 989.559 1543.99 1002.09 1528.75 1017.7 1515.04 z"/>
<path transform="translate(0,0)" fill="rgb(254,149,50)" d="M 833.981 331.096 C 872.244 312.75 874.446 282.743 882.688 245.142 C 887.737 222.406 892.63 199.635 897.367 176.832 C 900.124 163.263 901.934 145.301 907.946 132.901 C 909.267 130.178 912.183 127.753 914.931 126.551 C 920.892 123.944 1114.47 123.617 1126.07 126.431 C 1129.27 129.175 1132.31 134.512 1133.24 138.533 C 1141.23 173.036 1147.51 208.272 1156.03 242.707 C 1163.44 272.69 1164.67 305.826 1193.54 324.009 C 1213.9 336.828 1239.67 342.439 1262.6 349.652 C 1276.73 354.172 1290.73 359.103 1304.57 364.439 C 1393.81 398.639 1380.35 427.541 1471.59 363.418 L 1533.03 320.141 C 1541.08 314.405 1555.45 303.052 1564.3 300.645 C 1573.43 298.164 1598.03 327.66 1604.05 333.874 L 1645.97 376.373 L 1691.14 421.548 C 1702.47 432.829 1715.78 444.536 1724.16 457.891 C 1718.55 470.953 1708.24 484.229 1700.65 496.166 C 1689.83 513.188 1678.51 530.777 1667.99 547.819 C 1645.7 583.906 1614.73 615.654 1633.44 660.549 C 1643.98 685.843 1658.49 708.67 1668.96 733.954 C 1683.69 767.91 1690.47 804.943 1707.7 837.47 C 1722.69 865.775 1761.98 869.34 1790.29 874.955 C 1811.18 879.141 1832.09 883.215 1853.02 887.177 C 1866.76 889.657 1894.27 892.094 1902.88 903.567 C 1905.93 917.795 1904.92 935.992 1904.87 950.911 L 1904.71 1010.26 L 1904.75 1074.3 C 1904.81 1085.84 1904.93 1097.38 1904.96 1108.92 C 1904.99 1125.32 1887.95 1129.92 1874.68 1132.57 L 1789.21 1149 C 1772.8 1152.22 1749.91 1155.26 1735.32 1162.22 C 1725.17 1166.98 1716.51 1174.43 1710.28 1183.75 C 1700.55 1198.33 1694.29 1217.69 1689.3 1234.29 C 1677.81 1272.45 1662.93 1307.55 1643.5 1342.28 C 1639.61 1349.24 1635.96 1357.36 1633.25 1364.96 C 1629.18 1376.3 1627.15 1388.27 1627.25 1400.33 L 1626.56 1401.41 C 1623.94 1400.63 1602.83 1380.69 1599.71 1377.2 C 1565.7 1339.17 1534.56 1319.68 1517.24 1269.67 C 1491.07 1198.93 1507.62 1168.6 1520.85 1103.24 C 1525.77 1078.3 1528.58 1052.99 1529.23 1027.58 C 1531.66 955.946 1518.57 884.634 1490.89 818.523 C 1482.86 799.334 1474.92 780.976 1460.58 765.636 C 1455.77 743.779 1424.33 703.406 1408.69 685.625 C 1397.96 673.422 1382.94 659.469 1373.5 645.848 C 1305.5 585.048 1213.94 536.495 1123.97 519.422 C 1084.81 511.991 1054.83 510.689 1015.28 510.077 C 1016.47 502.956 1001.39 491.797 995.94 486.077 C 973.367 462.389 946.429 439.453 923.516 416.492 C 904.989 397.925 842.933 351.616 833.981 331.096 z"/>
<path transform="translate(0,0)" fill="rgb(221,127,37)" d="M 1373.5 645.848 C 1381.98 644.527 1389.59 650.123 1396.18 654.891 C 1484.83 719.04 1542.35 842.906 1558.69 949.027 C 1572.58 1039.21 1560.69 1155.13 1528 1240.43 C 1526.12 1245.33 1519.68 1266.28 1518.06 1268.64 C 1517.81 1269 1517.51 1269.33 1517.24 1269.67 C 1491.07 1198.93 1507.62 1168.6 1520.85 1103.24 C 1525.77 1078.3 1528.58 1052.99 1529.23 1027.58 C 1531.66 955.946 1518.57 884.634 1490.89 818.523 C 1482.86 799.334 1474.92 780.976 1460.58 765.636 C 1455.77 743.779 1424.33 703.406 1408.69 685.625 C 1397.96 673.422 1382.94 659.469 1373.5 645.848 z"/>
</svg>